<svg id="Component_7_1" data-name="Component 7 – 1" xmlns="http://www.w3.org/2000/svg" width="1552" height="456.909" viewBox="0 0 1552 456.909">
  <g id="Group_129" data-name="Group 129" transform="translate(-183 -138.676)">
    <rect id="Rectangle_104" data-name="Rectangle 104" width="524" height="6" transform="translate(1211 544)" fill="#fff"/>
    <rect id="Rectangle_120" data-name="Rectangle 120" width="524" height="6" transform="translate(183 544)" fill="#fff"/>
    <path id="Path_142" data-name="Path 142" d="M-207.2-63.365h-7.315l-7.98,25.46c-.475,1.52-1.045,2.945-1.52,4.465-.665,2.28-1.235,4.655-1.9,6.935-.855,2.945-1.9,5.89-2.47,8.93,0-15.295-1.8-30.59-3.23-45.79h-7.125L-251.655,0h7.885l7.79-43.6c0,14.535,1.52,29.07,2.755,43.6h5.7c3.135-9.975,6.365-19.855,9.31-29.83l1.71-5.795a76.55,76.55,0,0,0,2.28-7.98v.76a77.331,77.331,0,0,1-.76,8.075c-.285,2.85-.475,5.6-.76,8.455-.76,8.74-1.14,17.575-1.615,26.315h8.075Zm43.7,0h-8.17l-5.7,45.98c-.57,4.655-.855,10.165-6.935,10.165-3.8,0-5.6-1.71-5.6-5.51a41.027,41.027,0,0,1,.475-5.89l5.51-44.745h-8.265L-197.6-18.62a68.385,68.385,0,0,0-.665,7.6c0,8.265,4.465,11.875,12.445,11.875,12.445,0,15.39-7.315,16.72-18.24Zm32.68,1.33a14.284,14.284,0,0,0-8.36-2.09c-10.64,0-16.245,9.31-16.245,19,0,13.585,13.775,16.53,13.775,27.455,0,5.13-2.85,10.355-8.55,10.355-3.04,0-5.415-1.425-7.7-3.325l-1.045,8.455A13.013,13.013,0,0,0-150.1.855c10.64,0,16.72-9.975,16.72-19.665,0-14.155-13.68-18.05-13.68-27.835,0-5.035,3.23-9.88,8.645-9.88a9.231,9.231,0,0,1,6.46,2.85Zm21-1.33h-8.455L-125.97,0h8.36Zm36.29,1.045a10.941,10.941,0,0,0-6.84-1.8c-9.215,0-15.2,6.46-18.335,14.535-3.23,8.265-5.035,20.14-5.035,29.07C-103.74-9.88-100.6.855-87.97.855a11.883,11.883,0,0,0,6.935-1.8l.95-7.79A10.4,10.4,0,0,1-85.12-7.505c-8.36,0-9.6-8.36-9.6-14.915,0-7.125,1.425-18.05,4.085-24.605,1.9-4.75,5.51-9.215,11.02-9.215a10.238,10.238,0,0,1,5.225,1.615ZM-62.985-6.84l-6.46-2L-76.95,12.35l4.085,1.235ZM1.9-63.365H-20.425L-28.12,0H-5.795l.855-7.22H-18.81l2.565-21.565h12.35l.95-7.22h-12.35l2.47-20.14H1.045Zm36.1,0H30.115C27.36-54.055,24.6-44.84,22.04-35.53c-1.8,6.555-3.99,13.11-5.32,19.855,0-15.865-.76-31.825-1.425-47.69H7.03L11.3,0h6.65Zm34.96,16.91c0-9.31-2.565-17.67-13.49-17.67-11.4,0-15.675,9.215-17.86,18.9a129.432,129.432,0,0,0-3.04,28.975c0,9.215,2.755,17.1,13.4,17.1,10.355,0,14.63-7.695,17.1-16.625A115.2,115.2,0,0,0,72.96-46.455Zm-8.74-.57a130.587,130.587,0,0,1-1.235,16.15,108.973,108.973,0,0,1-2.66,15.58C59.185-11.21,57.57-7.03,52.63-7.03c-5.225,0-5.605-5.7-5.605-9.595A115.113,115.113,0,0,1,48.07-30.59c.76-6.555,1.235-13.3,3.515-19.57,1.14-3.23,3.23-6.27,7.03-6.27C64.22-56.43,64.22-51.2,64.22-47.025ZM101.745-7.22H88.065l6.84-56.145H86.45L78.755,0H100.89Zm37.62-56.145H131.48c-2.755,9.31-5.51,18.525-8.075,27.835-1.8,6.555-3.99,13.11-5.32,19.855,0-15.865-.76-31.825-1.425-47.69h-8.265L112.67,0h6.65Zm29.26,0H146.3L138.605,0H160.93l.855-7.22h-13.87l2.565-21.565h12.35l.95-7.22H151.43l2.47-20.14h13.87Zm10.07,0L171,0h6.745c3.705,0,8.455-.19,11.97-1.425,4.75-1.615,8.075-5.225,10.26-9.595,3.99-8.17,5.795-23.275,5.795-32.395,0-6.65-1.14-15.01-7.79-18.43-2.755-1.425-5.89-1.52-8.93-1.52ZM180.31-7.41l5.985-48.735c9.025,0,10.64,4.56,10.64,12.635,0,7.41-1.52,25.175-5.6,31.065-2.755,3.99-6.08,5.035-10.735,5.035Zm41.04,2.375A4.344,4.344,0,0,0,216.885-9.5a5.827,5.827,0,0,0-5.6,5.7A4.38,4.38,0,0,0,215.65.665,5.844,5.844,0,0,0,221.35-5.035Z" transform="translate(981 582)" fill="#fff"/>
  </g>
  <path id="Path_132" data-name="Path 132" d="M31.869,32.319H65.986l4.04,3.592V174.617l-4.04,4.038H31.869ZM0,0V314.222H31.869V210.529H79l23.341-22.446V22.444L79.453,0Z" transform="translate(2 0)" fill="#fff"/>
  <path id="Path_133" data-name="Path 133" d="M132.959,0V314.222h98.306V281.9H164.828V0Z" transform="translate(35.839 0)" fill="#fff"/>
  <path id="Path_134" data-name="Path 134" d="M452.59,0,427,143.193,401.417,0H368.648l42.194,235.664v78.558h31.872V235.664L485.359,0Z" transform="translate(95.823 0)" fill="#fff"/>
  <path id="Path_135" data-name="Path 135" d="M508.057,0V314.222h98.306V281.9H539.928V171.475h34.116V139.6H539.928V32.318h66.435V0Z" transform="translate(131.304 0)" fill="#fff"/>
  <path id="Path_136" data-name="Path 136" d="M669.668,32.319h34.116l4.038,3.592v91.574l-4.938,5.835H669.668ZM637.8,0V314.222h31.871V165.639h33.217l4.938,5.836V314.222h32.32V159.8l-8.977-10.323,8.977-9.875V22.444L717.25,0Z" transform="translate(164.323 0)" fill="#fff"/>
  <path id="Path_137" data-name="Path 137" d="M775.755,0V32.318h55.213L775.755,285.492v28.731h88.431V281.9H808.973L864.186,28.728V0Z" transform="translate(199.434 0)" fill="#fff"/>
  <path id="Path_138" data-name="Path 138" d="M897.622,0V314.222h98.306V281.9H929.493V171.475h34.116V139.6H929.493V32.318h66.435V0Z" transform="translate(230.45 0)" fill="#fff"/>
  <path id="Path_139" data-name="Path 139" d="M1053.231,32.319h34.118l4.039,3.592v91.574l-4.939,5.835h-33.218ZM1021.362,0V314.222h31.87V165.639h33.218l4.939,5.836V314.222h32.317V159.8l-8.977-10.323,8.977-9.875V22.444L1100.815,0Z" transform="translate(261.943 0)" fill="#fff"/>
  <path id="Path_140" data-name="Path 140" d="M1186.192,278.307V159.8l38.155,43.992v74.513l-4.039,3.592h-30.076Zm0-167.879V35.91l4.04-3.592h30.076l4.039,3.592V154.416ZM1177.214,0l-22.893,22.444V291.777l22.444,22.446h56.558l22.895-22.9V22.444L1233.774,0Z" transform="translate(295.782 0)" fill="#fff"/>
  <path id="Path_141" data-name="Path 141" d="M275.808,0h51.863c2.091,20.763,4.159,41.286,6.226,61.81,4.367,43.386,8.276,86.824,13.235,130.142a851.393,851.393,0,0,1,5.638,119.426c-.021.818-.179,1.632-.331,2.943H320.679c3.421-82.629-12.461-163.885-17.966-245.985l-1.74-.068c-.557,4.679-1.154,9.354-1.657,14.039-.507,4.726-.906,9.463-1.375,14.193-4.426,44.627-9.466,89.2-13.043,133.9-1.975,24.675-1.5,49.547-2.113,74.329-.075,3.066-.01,6.136-.01,9.645H251.423c-.2-.439-.649-.976-.649-1.513.026-30.991-.851-61.964,2.722-92.9,4.575-39.617,8.129-79.353,12.129-119.035C269,67.432,272.383,33.943,275.808,0" transform="translate(65.804 0)" fill="#fff"/>
</svg>
