<?xml version="1.0" encoding="UTF-8"?>
<svg viewBox="0 0 1552 77.71" xmlns="http://www.w3.org/2000/svg">
<g transform="translate(-183 -517.88)" fill="#fff" data-name="Group 129">
<rect transform="translate(1211 544)" width="524" height="6" data-name="Rectangle 104"/>
<rect transform="translate(183 544)" width="524" height="6" data-name="Rectangle 120"/>
<path transform="translate(981 582)" d="M-207.2-63.365h-7.315l-7.98,25.46c-.475,1.52-1.045,2.945-1.52,4.465-.665,2.28-1.235,4.655-1.9,6.935-.855,2.945-1.9,5.89-2.47,8.93,0-15.295-1.8-30.59-3.23-45.79h-7.125L-251.655,0h7.885l7.79-43.6c0,14.535,1.52,29.07,2.755,43.6h5.7c3.135-9.975,6.365-19.855,9.31-29.83l1.71-5.795a76.55,76.55,0,0,0,2.28-7.98v.76a77.331,77.331,0,0,1-.76,8.075c-.285,2.85-.475,5.6-.76,8.455-.76,8.74-1.14,17.575-1.615,26.315h8.075Zm43.7,0h-8.17l-5.7,45.98c-.57,4.655-.855,10.165-6.935,10.165-3.8,0-5.6-1.71-5.6-5.51a41.027,41.027,0,0,1,.475-5.89l5.51-44.745h-8.265L-197.6-18.62a68.385,68.385,0,0,0-.665,7.6c0,8.265,4.465,11.875,12.445,11.875,12.445,0,15.39-7.315,16.72-18.24Zm32.68,1.33a14.284,14.284,0,0,0-8.36-2.09c-10.64,0-16.245,9.31-16.245,19,0,13.585,13.775,16.53,13.775,27.455,0,5.13-2.85,10.355-8.55,10.355-3.04,0-5.415-1.425-7.7-3.325l-1.045,8.455A13.013,13.013,0,0,0-150.1.855c10.64,0,16.72-9.975,16.72-19.665,0-14.155-13.68-18.05-13.68-27.835,0-5.035,3.23-9.88,8.645-9.88a9.231,9.231,0,0,1,6.46,2.85Zm21-1.33h-8.455L-125.97,0h8.36Zm36.29,1.045a10.941,10.941,0,0,0-6.84-1.8c-9.215,0-15.2,6.46-18.335,14.535-3.23,8.265-5.035,20.14-5.035,29.07C-103.74-9.88-100.6.855-87.97.855a11.883,11.883,0,0,0,6.935-1.8l.95-7.79A10.4,10.4,0,0,1-85.12-7.505c-8.36,0-9.6-8.36-9.6-14.915,0-7.125,1.425-18.05,4.085-24.605,1.9-4.75,5.51-9.215,11.02-9.215a10.238,10.238,0,0,1,5.225,1.615ZM-62.985-6.84l-6.46-2L-76.95,12.35l4.085,1.235ZM1.9-63.365H-20.425L-28.12,0H-5.795l.855-7.22H-18.81l2.565-21.565h12.35l.95-7.22h-12.35l2.47-20.14H1.045Zm36.1,0H30.115C27.36-54.055,24.6-44.84,22.04-35.53c-1.8,6.555-3.99,13.11-5.32,19.855,0-15.865-.76-31.825-1.425-47.69H7.03L11.3,0h6.65Zm34.96,16.91c0-9.31-2.565-17.67-13.49-17.67-11.4,0-15.675,9.215-17.86,18.9a129.432,129.432,0,0,0-3.04,28.975c0,9.215,2.755,17.1,13.4,17.1,10.355,0,14.63-7.695,17.1-16.625A115.2,115.2,0,0,0,72.96-46.455Zm-8.74-.57a130.587,130.587,0,0,1-1.235,16.15,108.973,108.973,0,0,1-2.66,15.58C59.185-11.21,57.57-7.03,52.63-7.03c-5.225,0-5.605-5.7-5.605-9.595A115.113,115.113,0,0,1,48.07-30.59c.76-6.555,1.235-13.3,3.515-19.57,1.14-3.23,3.23-6.27,7.03-6.27C64.22-56.43,64.22-51.2,64.22-47.025ZM101.745-7.22H88.065l6.84-56.145H86.45L78.755,0H100.89Zm37.62-56.145H131.48c-2.755,9.31-5.51,18.525-8.075,27.835-1.8,6.555-3.99,13.11-5.32,19.855,0-15.865-.76-31.825-1.425-47.69h-8.265L112.67,0h6.65Zm29.26,0H146.3L138.605,0H160.93l.855-7.22h-13.87l2.565-21.565h12.35l.95-7.22H151.43l2.47-20.14h13.87Zm10.07,0L171,0h6.745c3.705,0,8.455-.19,11.97-1.425,4.75-1.615,8.075-5.225,10.26-9.595,3.99-8.17,5.795-23.275,5.795-32.395,0-6.65-1.14-15.01-7.79-18.43-2.755-1.425-5.89-1.52-8.93-1.52ZM180.31-7.41l5.985-48.735c9.025,0,10.64,4.56,10.64,12.635,0,7.41-1.52,25.175-5.6,31.065-2.755,3.99-6.08,5.035-10.735,5.035Zm41.04,2.375A4.344,4.344,0,0,0,216.885-9.5a5.827,5.827,0,0,0-5.6,5.7A4.38,4.38,0,0,0,215.65.665,5.844,5.844,0,0,0,221.35-5.035Z" data-name="Path 142"/>
</g>
</svg>
