<svg width="1074" height="211" viewBox="0 0 1074 211" fill="none" xmlns="http://www.w3.org/2000/svg">
<path d="M310.655 71V73H314.377L312.323 69.8961L310.655 71ZM264.055 0.599995L265.723 -0.503933L265.13 -1.40001H264.055V0.599995ZM252.055 0.599995V-1.40001H250.984L250.391 -0.508862L252.055 0.599995ZM205.155 71L203.491 69.8911L201.42 73H205.155V71ZM223.355 71V73H224.441L225.033 72.0891L223.355 71ZM258.155 17.4L259.843 16.3265L258.172 13.7009L256.478 16.3109L258.155 17.4ZM292.255 71L290.568 72.0735L291.157 73H292.255V71ZM312.323 69.8961L265.723 -0.503933L262.387 1.70392L308.987 72.1039L312.323 69.8961ZM264.055 -1.40001H252.055V2.59999H264.055V-1.40001ZM250.391 -0.508862L203.491 69.8911L206.82 72.1089L253.72 1.70885L250.391 -0.508862ZM205.155 73H223.355V69H205.155V73ZM225.033 72.0891L259.833 18.4891L256.478 16.3109L221.678 69.9109L225.033 72.0891ZM256.468 18.4735L290.568 72.0735L293.943 69.9265L259.843 16.3265L256.468 18.4735ZM292.255 73H310.655V69H292.255V73ZM399.006 71V73H400.279L400.818 71.8468L399.006 71ZM431.906 0.599995L433.718 1.44675L435.048 -1.40001H431.906V0.599995ZM416.106 0.599995V-1.40001H414.83L414.292 -0.243607L416.106 0.599995ZM392.706 50.9L390.891 51.7406L392.702 55.6499L394.519 51.7436L392.706 50.9ZM369.406 0.599995L371.221 -0.240639L370.684 -1.40001H369.406V0.599995ZM357.206 0.599995V-1.40001H355.937L355.397 -0.252464L357.206 0.599995ZM333.506 50.9L331.688 51.7347L333.483 55.6416L335.315 51.7525L333.506 50.9ZM310.406 0.599995L312.223 -0.234684L311.688 -1.40001H310.406V0.599995ZM294.706 0.599995V-1.40001H291.572L292.892 1.44252L294.706 0.599995ZM327.406 71L325.592 71.8425L326.13 73H327.406V71ZM339.306 71V73H340.565L341.11 71.8642L339.306 71ZM363.406 20.7L365.221 19.8594L363.436 16.0076L361.602 19.8358L363.406 20.7ZM386.706 71L384.891 71.8406L385.428 73H386.706V71ZM400.818 71.8468L433.718 1.44675L430.094 -0.246761L397.194 70.1532L400.818 71.8468ZM431.906 -1.40001H416.106V2.59999H431.906V-1.40001ZM414.292 -0.243607L390.892 50.0564L394.519 51.7436L417.919 1.44359L414.292 -0.243607ZM394.521 50.0594L371.221 -0.240639L367.591 1.44063L390.891 51.7406L394.521 50.0594ZM369.406 -1.40001H357.206V2.59999H369.406V-1.40001ZM355.397 -0.252464L331.697 50.0475L335.315 51.7525L359.015 1.45245L355.397 -0.252464ZM335.323 50.0653L312.223 -0.234684L308.588 1.43467L331.688 51.7347L335.323 50.0653ZM310.406 -1.40001H294.706V2.59999H310.406V-1.40001ZM292.892 1.44252L325.592 71.8425L329.22 70.1575L296.52 -0.242531L292.892 1.44252ZM327.406 73H339.306V69H327.406V73ZM341.11 71.8642L365.21 21.5642L361.602 19.8358L337.502 70.1358L341.11 71.8642ZM361.591 21.5406L384.891 71.8406L388.521 70.1594L365.221 19.8594L361.591 21.5406ZM386.706 73H399.006V69H386.706V73ZM519.054 71V73H522.776L520.721 69.8961L519.054 71ZM472.454 0.599995L474.121 -0.503933L473.528 -1.40001H472.454V0.599995ZM460.454 0.599995V-1.40001H459.383L458.789 -0.508862L460.454 0.599995ZM413.554 71L411.889 69.8911L409.818 73H413.554V71ZM431.754 71V73H432.84L433.431 72.0891L431.754 71ZM466.554 17.4L468.241 16.3265L466.571 13.7009L464.876 16.3109L466.554 17.4ZM500.654 71L498.966 72.0735L499.555 73H500.654V71ZM520.721 69.8961L474.121 -0.503933L470.786 1.70392L517.386 72.1039L520.721 69.8961ZM472.454 -1.40001H460.454V2.59999H472.454V-1.40001ZM458.789 -0.508862L411.889 69.8911L415.218 72.1089L462.118 1.70885L458.789 -0.508862ZM413.554 73H431.754V69H413.554V73ZM433.431 72.0891L468.231 18.4891L464.876 16.3109L430.076 69.9109L433.431 72.0891ZM464.866 18.4735L498.966 72.0735L502.341 69.9265L468.241 16.3265L464.866 18.4735ZM500.654 73H519.054V69H500.654V73ZM541.736 71V73H543.736V71H541.736ZM541.736 0.599995H543.736V-1.40001H541.736V0.599995ZM525.436 0.599995V-1.40001H523.436V0.599995H525.436ZM525.436 71H523.436V73H525.436V71ZM543.736 71V0.599995H539.736V71H543.736ZM541.736 -1.40001H525.436V2.59999H541.736V-1.40001ZM523.436 0.599995V71H527.436V0.599995H523.436ZM525.436 73H541.736V69H525.436V73ZM603.124 71V73H605.124V71H603.124ZM603.124 13.3V11.3H601.124V13.3H603.124ZM638.624 13.3V15.3H640.624V13.3H638.624ZM638.624 0.599995H640.624V-1.40001H638.624V0.599995ZM550.424 0.599995V-1.40001H548.424V0.599995H550.424ZM550.424 13.3H548.424V15.3H550.424V13.3ZM586.724 13.3H588.724V11.3H586.724V13.3ZM586.724 71H584.724V73H586.724V71ZM605.124 71V13.3H601.124V71H605.124ZM603.124 15.3H638.624V11.3H603.124V15.3ZM640.624 13.3V0.599995H636.624V13.3H640.624ZM638.624 -1.40001H550.424V2.59999H638.624V-1.40001ZM548.424 0.599995V13.3H552.424V0.599995H548.424ZM550.424 15.3H586.724V11.3H550.424V15.3ZM584.724 13.3V71H588.724V13.3H584.724ZM586.724 73H603.124V69H586.724V73ZM663.611 71V73H665.611V71H663.611ZM663.611 0.599995H665.611V-1.40001H663.611V0.599995ZM647.311 0.599995V-1.40001H645.311V0.599995H647.311ZM647.311 71H645.311V73H647.311V71ZM665.611 71V0.599995H661.611V71H665.611ZM663.611 -1.40001H647.311V2.59999H663.611V-1.40001ZM645.311 0.599995V71H649.311V0.599995H645.311ZM647.311 73H663.611V69H647.311V73ZM771.999 71V73H773.999V71H771.999ZM771.999 0.599995H773.999V-1.40001H771.999V0.599995ZM757.699 0.599995V-1.40001H755.699V0.599995H757.699ZM757.699 48.8L756.532 50.4244L759.699 52.6992V48.8H757.699ZM690.599 0.599995L691.766 -1.02436L691.243 -1.40001H690.599V0.599995ZM676.499 0.599995V-1.40001H674.499V0.599995H676.499ZM676.499 71H674.499V73H676.499V71ZM690.699 71V73H692.699V71H690.699ZM690.699 19.7L691.846 18.0614L688.699 15.8591V19.7H690.699ZM763.999 71L762.852 72.6386L763.368 73H763.999V71ZM773.999 71V0.599995H769.999V71H773.999ZM771.999 -1.40001H757.699V2.59999H771.999V-1.40001ZM755.699 0.599995V48.8H759.699V0.599995H755.699ZM758.866 47.1756L691.766 -1.02436L689.432 2.22435L756.532 50.4244L758.866 47.1756ZM690.599 -1.40001H676.499V2.59999H690.599V-1.40001ZM674.499 0.599995V71H678.499V0.599995H674.499ZM676.499 73H690.699V69H676.499V73ZM692.699 71V19.7H688.699V71H692.699ZM689.552 21.3386L762.852 72.6386L765.146 69.3614L691.846 18.0614L689.552 21.3386ZM763.999 73H771.999V69H763.999V73ZM867.111 32.6H869.111V30.6H867.111V32.6ZM850.711 32.6V30.6H848.711V32.6H850.711ZM866.011 13.3V15.3H868.011V13.3H866.011ZM866.011 0.599995H868.011V-1.40001H866.011V0.599995ZM844.111 73C852.001 73 858.274 72.1195 862.589 69.3143C867.131 66.361 869.111 61.5681 869.111 54.9H865.111C865.111 60.7319 863.441 63.989 860.409 65.9607C857.148 68.0805 851.922 69 844.111 69V73ZM869.111 54.9V32.6H865.111V54.9H869.111ZM867.111 30.6H850.711V34.6H867.111V30.6ZM848.711 32.6V54.9H852.711V32.6H848.711ZM848.711 54.9C848.711 55.1351 848.654 55.2249 848.611 55.2799C848.546 55.3639 848.38 55.5173 847.992 55.6788C847.169 56.0216 845.846 56.2 844.111 56.2V60.2C845.976 60.2 847.953 60.0284 849.531 59.3712C850.343 59.0327 851.152 58.5236 851.761 57.7451C852.393 56.9376 852.711 55.9649 852.711 54.9H848.711ZM844.111 56.2H806.811V60.2H844.111V56.2ZM806.811 56.2C805.099 56.2 803.757 56.0006 802.915 55.631C802.516 55.4559 802.328 55.2849 802.242 55.1729C802.177 55.0873 802.111 54.9633 802.111 54.7H798.111C798.111 55.7867 798.433 56.7752 799.062 57.599C799.67 58.3963 800.482 58.9316 801.308 59.294C802.916 59.9994 804.924 60.2 806.811 60.2V56.2ZM802.111 54.7V18.2H798.111V54.7H802.111ZM802.111 18.2C802.111 17.0553 802.403 16.5107 802.816 16.1721C803.325 15.755 804.439 15.3 806.811 15.3V11.3C804.083 11.3 801.847 11.795 800.281 13.0779C798.62 14.4393 798.111 16.3447 798.111 18.2H802.111ZM806.811 15.3H866.011V11.3H806.811V15.3ZM868.011 13.3V0.599995H864.011V13.3H868.011ZM866.011 -1.40001H806.911V2.59999H866.011V-1.40001ZM806.911 -1.40001C799.49 -1.40001 793.218 -0.106258 788.759 3.08641C784.174 6.36971 781.811 11.4358 781.811 18.2H785.811C785.811 12.4642 787.748 8.73029 791.088 6.33857C794.555 3.85625 799.833 2.59999 806.911 2.59999V-1.40001ZM781.811 18.2V54.8H785.811V18.2H781.811ZM781.811 54.8C781.811 60.9523 784.242 65.6543 788.808 68.7226C793.245 71.7037 799.484 73 806.911 73V69C799.839 69 794.527 67.7463 791.039 65.4024C787.681 63.1457 785.811 59.7477 785.811 54.8H781.811ZM806.911 73H844.111V69H806.911V73ZM52.7332 211V213H54.7332V211H52.7332ZM52.7332 153.3V151.3H50.7332V153.3H52.7332ZM88.2332 153.3V155.3H90.2332V153.3H88.2332ZM88.2332 140.6H90.2332V138.6H88.2332V140.6ZM0.0332031 140.6V138.6H-1.9668V140.6H0.0332031ZM0.0332031 153.3H-1.9668V155.3H0.0332031V153.3ZM36.3332 153.3H38.3332V151.3H36.3332V153.3ZM36.3332 211H34.3332V213H36.3332V211ZM54.7332 211V153.3H50.7332V211H54.7332ZM52.7332 155.3H88.2332V151.3H52.7332V155.3ZM90.2332 153.3V140.6H86.2332V153.3H90.2332ZM88.2332 138.6H0.0332031V142.6H88.2332V138.6ZM-1.9668 140.6V153.3H2.0332V140.6H-1.9668ZM0.0332031 155.3H36.3332V151.3H0.0332031V155.3ZM34.3332 153.3V211H38.3332V153.3H34.3332ZM36.3332 213H52.7332V209H36.3332V213ZM179.521 211V213H182.761L181.308 210.103L179.521 211ZM163.721 179.5L163.453 177.518L160.677 177.893L161.933 180.397L163.721 179.5ZM96.4207 140.6V138.6H94.4207V140.6H96.4207ZM96.4207 211H94.4207V213H96.4207V211ZM112.721 211V213H114.721V211H112.721ZM112.721 179.7V177.7H110.721V179.7H112.721ZM146.321 179.7L148.108 178.803L147.555 177.7H146.321V179.7ZM162.021 211L160.233 211.897L160.786 213H162.021V211ZM112.721 167H110.721V169H112.721V167ZM112.721 153.3V151.3H110.721V153.3H112.721ZM181.308 210.103L165.508 178.603L161.933 180.397L177.733 211.897L181.308 210.103ZM163.988 181.482C170.593 180.591 175.257 178.345 178.25 174.931C181.245 171.514 182.321 167.207 182.321 162.7H178.321C178.321 166.592 177.397 169.836 175.242 172.294C173.084 174.755 169.448 176.709 163.453 177.518L163.988 181.482ZM182.321 162.7V157.6H178.321V162.7H182.321ZM182.321 157.6C182.321 152.114 180.59 147.229 176.393 143.769C172.265 140.367 166.055 138.6 157.621 138.6V142.6C165.587 142.6 170.726 144.283 173.849 146.856C176.901 149.371 178.321 152.986 178.321 157.6H182.321ZM157.621 138.6H96.4207V142.6H157.621V138.6ZM94.4207 140.6V211H98.4207V140.6H94.4207ZM96.4207 213H112.721V209H96.4207V213ZM114.721 211V179.7H110.721V211H114.721ZM112.721 181.7H146.321V177.7H112.721V181.7ZM144.533 180.597L160.233 211.897L163.808 210.103L148.108 178.803L144.533 180.597ZM162.021 213H179.521V209H162.021V213ZM161.921 162.8C161.921 164.071 161.587 164.32 161.351 164.462C160.835 164.773 159.774 165 157.621 165V169C159.767 169 161.856 168.827 163.415 167.888C165.254 166.78 165.921 164.929 165.921 162.8H161.921ZM157.621 165H112.721V169H157.621V165ZM114.721 167V153.3H110.721V167H114.721ZM112.721 155.3H157.621V151.3H112.721V155.3ZM157.621 155.3C159.524 155.3 160.646 155.613 161.236 155.988C161.671 156.265 161.921 156.624 161.921 157.4H165.921C165.921 155.376 165.07 153.685 163.381 152.612C161.845 151.637 159.817 151.3 157.621 151.3V155.3ZM161.921 157.4V162.8H165.921V157.4H161.921ZM289.366 211V213H293.088L291.034 209.896L289.366 211ZM242.766 140.6L244.434 139.496L243.841 138.6H242.766V140.6ZM230.766 140.6V138.6H229.695L229.102 139.491L230.766 140.6ZM183.866 211L182.202 209.891L180.13 213H183.866V211ZM202.066 211V213H203.152L203.743 212.089L202.066 211ZM236.866 157.4L238.553 156.326L236.883 153.701L235.189 156.311L236.866 157.4ZM270.966 211L269.279 212.074L269.868 213H270.966V211ZM291.034 209.896L244.434 139.496L241.098 141.704L287.698 212.104L291.034 209.896ZM242.766 138.6H230.766V142.6H242.766V138.6ZM229.102 139.491L182.202 209.891L185.53 212.109L232.43 141.709L229.102 139.491ZM183.866 213H202.066V209H183.866V213ZM203.743 212.089L238.543 158.489L235.189 156.311L200.389 209.911L203.743 212.089ZM235.179 158.474L269.279 212.074L272.653 209.926L238.553 156.326L235.179 158.474ZM270.966 213H289.366V209H270.966V213ZM390.749 211V213H392.749V211H390.749ZM390.749 140.6H392.749V138.6H390.749V140.6ZM376.449 140.6V138.6H374.449V140.6H376.449ZM376.449 188.8L375.282 190.424L378.449 192.699V188.8H376.449ZM309.349 140.6L310.516 138.976L309.993 138.6H309.349V140.6ZM295.249 140.6V138.6H293.249V140.6H295.249ZM295.249 211H293.249V213H295.249V211ZM309.449 211V213H311.449V211H309.449ZM309.449 159.7L310.596 158.061L307.449 155.859V159.7H309.449ZM382.749 211L381.602 212.639L382.118 213H382.749V211ZM392.749 211V140.6H388.749V211H392.749ZM390.749 138.6H376.449V142.6H390.749V138.6ZM374.449 140.6V188.8H378.449V140.6H374.449ZM377.616 187.176L310.516 138.976L308.182 142.224L375.282 190.424L377.616 187.176ZM309.349 138.6H295.249V142.6H309.349V138.6ZM293.249 140.6V211H297.249V140.6H293.249ZM295.249 213H309.449V209H295.249V213ZM311.449 211V159.7H307.449V211H311.449ZM308.302 161.339L381.602 212.639L383.896 209.361L310.596 158.061L308.302 161.339ZM382.749 213H390.749V209H382.749V213ZM485.361 153.3V155.3H487.361V153.3H485.361ZM485.361 140.6H487.361V138.6H485.361V140.6ZM403.961 198.2V196.2H401.961V198.2H403.961ZM403.961 211H401.961V213H403.961V211ZM466.561 213C475.049 213 481.287 211.206 485.428 207.763C489.635 204.264 491.361 199.329 491.361 193.8H487.361C487.361 198.471 485.937 202.136 482.87 204.687C479.736 207.294 474.574 209 466.561 209V213ZM491.361 193.8V184H487.361V193.8H491.361ZM491.361 184C491.361 178.469 489.634 173.557 485.421 170.082C481.28 166.666 475.043 164.9 466.561 164.9V168.9C474.58 168.9 479.743 170.584 482.876 173.168C485.938 175.693 487.361 179.331 487.361 184H491.361ZM466.561 164.9H424.461V168.9H466.561V164.9ZM424.461 164.9C422.26 164.9 421.136 164.571 420.596 164.211C420.246 163.977 419.961 163.624 419.961 162.6H415.961C415.961 164.576 416.627 166.373 418.377 167.539C419.936 168.579 422.062 168.9 424.461 168.9V164.9ZM419.961 162.6V157.6H415.961V162.6H419.961ZM419.961 157.6C419.961 156.537 420.274 156.185 420.654 155.949C421.244 155.583 422.391 155.3 424.461 155.3V151.3C422.231 151.3 420.128 151.567 418.544 152.551C416.749 153.665 415.961 155.463 415.961 157.6H419.961ZM424.461 155.3H485.361V151.3H424.461V155.3ZM487.361 153.3V140.6H483.361V153.3H487.361ZM485.361 138.6H424.461V142.6H485.361V138.6ZM424.461 138.6C415.98 138.6 409.743 140.366 405.601 143.782C401.388 147.257 399.661 152.169 399.661 157.7H403.661C403.661 153.031 405.084 149.393 408.146 146.868C411.28 144.284 416.443 142.6 424.461 142.6V138.6ZM399.661 157.7V162.5H403.661V157.7H399.661ZM399.661 162.5C399.661 168.031 401.388 172.943 405.601 176.418C409.743 179.834 415.98 181.6 424.461 181.6V177.6C416.443 177.6 411.28 175.916 408.146 173.332C405.084 170.807 403.661 167.169 403.661 162.5H399.661ZM424.461 181.6H466.561V177.6H424.461V181.6ZM466.561 181.6C468.755 181.6 469.841 181.89 470.358 182.226C470.651 182.417 470.961 182.734 470.961 183.9H474.961C474.961 181.866 474.321 180.033 472.54 178.874C470.981 177.86 468.867 177.6 466.561 177.6V181.6ZM470.961 183.9V194H474.961V183.9H470.961ZM470.961 194C470.961 195.34 470.634 195.552 470.445 195.667C469.954 195.967 468.889 196.2 466.561 196.2V200.2C468.834 200.2 470.969 200.033 472.528 199.083C474.388 197.948 474.961 196.06 474.961 194H470.961ZM466.561 196.2H403.961V200.2H466.561V196.2ZM401.961 198.2V211H405.961V198.2H401.961ZM403.961 213H466.561V209H403.961V213ZM609.346 211V213H611.346V211H609.346ZM609.346 140.6H611.346V138.6H609.346V140.6ZM595.446 140.6V138.6H594.436L593.836 139.413L595.446 140.6ZM555.246 195.1L553.64 196.293L555.252 198.461L556.855 196.287L555.246 195.1ZM514.746 140.6L516.351 139.407L515.751 138.6H514.746V140.6ZM499.546 140.6V138.6H497.546V140.6H499.546ZM499.546 211H497.546V213H499.546V211ZM514.646 211V213H516.646V211H514.646ZM514.646 166.7L516.246 165.501L512.646 160.696V166.7H514.646ZM547.846 211L546.245 212.199L546.845 213H547.846V211ZM561.246 211V213H562.251L562.851 212.193L561.246 211ZM594.246 166.6H596.246V160.556L592.641 165.407L594.246 166.6ZM594.246 211H592.246V213H594.246V211ZM611.346 211V140.6H607.346V211H611.346ZM609.346 138.6H595.446V142.6H609.346V138.6ZM593.836 139.413L553.636 193.913L556.855 196.287L597.055 141.787L593.836 139.413ZM556.851 193.907L516.351 139.407L513.14 141.793L553.64 196.293L556.851 193.907ZM514.746 138.6H499.546V142.6H514.746V138.6ZM497.546 140.6V211H501.546V140.6H497.546ZM499.546 213H514.646V209H499.546V213ZM516.646 211V166.7H512.646V211H516.646ZM513.045 167.899L546.245 212.199L549.446 209.801L516.246 165.501L513.045 167.899ZM547.846 213H561.246V209H547.846V213ZM562.851 212.193L595.851 167.793L592.641 165.407L559.641 209.807L562.851 212.193ZM592.246 166.6V211H596.246V166.6H592.246ZM594.246 213H609.346V209H594.246V213ZM638.514 211V213H640.514V211H638.514ZM638.514 140.6H640.514V138.6H638.514V140.6ZM622.214 140.6V138.6H620.214V140.6H622.214ZM622.214 211H620.214V213H622.214V211ZM640.514 211V140.6H636.514V211H640.514ZM638.514 138.6H622.214V142.6H638.514V138.6ZM620.214 140.6V211H624.214V140.6H620.214ZM622.214 213H638.514V209H622.214V213ZM733.701 153.3V155.3H735.701V153.3H733.701ZM733.701 140.6H735.701V138.6H733.701V140.6ZM652.301 198.2V196.2H650.301V198.2H652.301ZM652.301 211H650.301V213H652.301V211ZM714.901 213C723.388 213 729.627 211.206 733.767 207.763C737.975 204.264 739.701 199.329 739.701 193.8H735.701C735.701 198.471 734.277 202.136 731.21 204.687C728.076 207.294 722.914 209 714.901 209V213ZM739.701 193.8V184H735.701V193.8H739.701ZM739.701 184C739.701 178.469 737.974 173.557 733.761 170.082C729.619 166.666 723.382 164.9 714.901 164.9V168.9C722.92 168.9 728.083 170.584 731.216 173.168C734.278 175.693 735.701 179.331 735.701 184H739.701ZM714.901 164.9H672.801V168.9H714.901V164.9ZM672.801 164.9C670.6 164.9 669.476 164.571 668.936 164.211C668.585 163.977 668.301 163.624 668.301 162.6H664.301C664.301 164.576 664.967 166.373 666.717 167.539C668.276 168.579 670.402 168.9 672.801 168.9V164.9ZM668.301 162.6V157.6H664.301V162.6H668.301ZM668.301 157.6C668.301 156.537 668.614 156.185 668.993 155.949C669.584 155.583 670.731 155.3 672.801 155.3V151.3C670.571 151.3 668.468 151.567 666.884 152.551C665.088 153.665 664.301 155.463 664.301 157.6H668.301ZM672.801 155.3H733.701V151.3H672.801V155.3ZM735.701 153.3V140.6H731.701V153.3H735.701ZM733.701 138.6H672.801V142.6H733.701V138.6ZM672.801 138.6C664.32 138.6 658.083 140.366 653.941 143.782C649.728 147.257 648.001 152.169 648.001 157.7H652.001C652.001 153.031 653.424 149.393 656.486 146.868C659.619 144.284 664.782 142.6 672.801 142.6V138.6ZM648.001 157.7V162.5H652.001V157.7H648.001ZM648.001 162.5C648.001 168.031 649.728 172.943 653.941 176.418C658.083 179.834 664.32 181.6 672.801 181.6V177.6C664.782 177.6 659.619 175.916 656.486 173.332C653.424 170.807 652.001 167.169 652.001 162.5H648.001ZM672.801 181.6H714.901V177.6H672.801V181.6ZM714.901 181.6C717.095 181.6 718.181 181.89 718.698 182.226C718.991 182.417 719.301 182.734 719.301 183.9H723.301C723.301 181.866 722.661 180.033 720.879 178.874C719.321 177.86 717.207 177.6 714.901 177.6V181.6ZM719.301 183.9V194H723.301V183.9H719.301ZM719.301 194C719.301 195.34 718.974 195.552 718.785 195.667C718.293 195.967 717.228 196.2 714.901 196.2V200.2C717.174 200.2 719.309 200.033 720.867 199.083C722.728 197.948 723.301 196.06 723.301 194H719.301ZM714.901 196.2H652.301V200.2H714.901V196.2ZM650.301 198.2V211H654.301V198.2H650.301ZM652.301 213H714.901V209H652.301V213ZM830.186 153.3V155.3H832.186V153.3H830.186ZM830.186 140.6H832.186V138.6H830.186V140.6ZM748.786 198.2V196.2H746.786V198.2H748.786ZM748.786 211H746.786V213H748.786V211ZM811.386 213C819.873 213 826.111 211.206 830.252 207.763C834.459 204.264 836.186 199.329 836.186 193.8H832.186C832.186 198.471 830.762 202.136 827.694 204.687C824.56 207.294 819.398 209 811.386 209V213ZM836.186 193.8V184H832.186V193.8H836.186ZM836.186 184C836.186 178.469 834.458 173.557 830.246 170.082C826.104 166.666 819.867 164.9 811.386 164.9V168.9C819.404 168.9 824.567 170.584 827.701 173.168C830.763 175.693 832.186 179.331 832.186 184H836.186ZM811.386 164.9H769.286V168.9H811.386V164.9ZM769.286 164.9C767.085 164.9 765.96 164.571 765.42 164.211C765.07 163.977 764.786 163.624 764.786 162.6H760.786C760.786 164.576 761.451 166.373 763.201 167.539C764.761 168.579 766.886 168.9 769.286 168.9V164.9ZM764.786 162.6V157.6H760.786V162.6H764.786ZM764.786 157.6C764.786 156.537 765.098 156.185 765.478 155.949C766.068 155.583 767.216 155.3 769.286 155.3V151.3C767.055 151.3 764.953 151.567 763.368 152.551C761.573 153.665 760.786 155.463 760.786 157.6H764.786ZM769.286 155.3H830.186V151.3H769.286V155.3ZM832.186 153.3V140.6H828.186V153.3H832.186ZM830.186 138.6H769.286V142.6H830.186V138.6ZM769.286 138.6C760.804 138.6 754.567 140.366 750.426 143.782C746.213 147.257 744.486 152.169 744.486 157.7H748.486C748.486 153.031 749.908 149.393 752.971 146.868C756.104 144.284 761.267 142.6 769.286 142.6V138.6ZM744.486 157.7V162.5H748.486V157.7H744.486ZM744.486 162.5C744.486 168.031 746.213 172.943 750.426 176.418C754.567 179.834 760.804 181.6 769.286 181.6V177.6C761.267 177.6 756.104 175.916 752.971 173.332C749.908 170.807 748.486 167.169 748.486 162.5H744.486ZM769.286 181.6H811.386V177.6H769.286V181.6ZM811.386 181.6C813.579 181.6 814.666 181.89 815.182 182.226C815.476 182.417 815.786 182.734 815.786 183.9H819.786C819.786 181.866 819.145 180.033 817.364 178.874C815.805 177.86 813.692 177.6 811.386 177.6V181.6ZM815.786 183.9V194H819.786V183.9H815.786ZM815.786 194C815.786 195.34 815.459 195.552 815.269 195.667C814.778 195.967 813.713 196.2 811.386 196.2V200.2C813.658 200.2 815.793 200.033 817.352 199.083C819.212 197.948 819.786 196.06 819.786 194H815.786ZM811.386 196.2H748.786V200.2H811.386V196.2ZM746.786 198.2V211H750.786V198.2H746.786ZM748.786 213H811.386V209H748.786V213ZM861.17 211V213H863.17V211H861.17ZM861.17 140.6H863.17V138.6H861.17V140.6ZM844.87 140.6V138.6H842.87V140.6H844.87ZM844.87 211H842.87V213H844.87V211ZM863.17 211V140.6H859.17V211H863.17ZM861.17 138.6H844.87V142.6H861.17V138.6ZM842.87 140.6V211H846.87V140.6H842.87ZM844.87 213H861.17V209H844.87V213ZM943.857 213C952.291 213 958.48 211.233 962.585 207.827C966.758 204.363 968.457 199.476 968.457 194H964.457C964.457 198.624 963.057 202.237 960.03 204.748C956.935 207.317 951.824 209 943.857 209V213ZM968.457 194V157.6H964.457V194H968.457ZM968.457 157.6C968.457 152.124 966.758 147.237 962.585 143.773C958.48 140.367 952.291 138.6 943.857 138.6V142.6C951.824 142.6 956.935 144.283 960.03 146.852C963.057 149.363 964.457 152.976 964.457 157.6H968.457ZM943.857 138.6H896.157V142.6H943.857V138.6ZM896.157 138.6C887.724 138.6 881.535 140.367 877.43 143.773C873.257 147.237 871.557 152.124 871.557 157.6H875.557C875.557 152.976 876.958 149.363 879.985 146.852C883.08 144.283 888.191 142.6 896.157 142.6V138.6ZM871.557 157.6V194H875.557V157.6H871.557ZM871.557 194C871.557 199.476 873.257 204.363 877.43 207.827C881.535 211.233 887.724 213 896.157 213V209C888.191 209 883.08 207.317 879.985 204.748C876.958 202.237 875.557 198.624 875.557 194H871.557ZM896.157 213H943.857V209H896.157V213ZM948.157 194.1C948.157 194.946 947.894 195.286 947.487 195.54C946.903 195.904 945.785 196.2 943.857 196.2V200.2C946.029 200.2 948.062 199.896 949.603 198.935C951.321 197.864 952.157 196.154 952.157 194.1H948.157ZM943.857 196.2H896.157V200.2H943.857V196.2ZM896.157 196.2C894.229 196.2 893.112 195.904 892.528 195.54C892.121 195.286 891.857 194.946 891.857 194.1H887.857C887.857 196.154 888.694 197.864 890.412 198.935C891.953 199.896 893.985 200.2 896.157 200.2V196.2ZM891.857 194.1V157.4H887.857V194.1H891.857ZM891.857 157.4C891.857 156.624 892.107 156.265 892.542 155.988C893.132 155.613 894.254 155.3 896.157 155.3V151.3C893.961 151.3 891.933 151.637 890.397 152.612C888.708 153.685 887.857 155.376 887.857 157.4H891.857ZM896.157 155.3H943.857V151.3H896.157V155.3ZM943.857 155.3C945.761 155.3 946.883 155.613 947.472 155.988C947.908 156.265 948.157 156.624 948.157 157.4H952.157C952.157 155.376 951.307 153.685 949.617 152.612C948.082 151.637 946.054 151.3 943.857 151.3V155.3ZM948.157 157.4V194.1H952.157V157.4H948.157ZM1073.85 211V213H1075.85V211H1073.85ZM1073.85 140.6H1075.85V138.6H1073.85V140.6ZM1059.55 140.6V138.6H1057.55V140.6H1059.55ZM1059.55 188.8L1058.39 190.424L1061.55 192.699V188.8H1059.55ZM992.454 140.6L993.621 138.976L993.098 138.6H992.454V140.6ZM978.354 140.6V138.6H976.354V140.6H978.354ZM978.354 211H976.354V213H978.354V211ZM992.554 211V213H994.554V211H992.554ZM992.554 159.7L993.701 158.061L990.554 155.859V159.7H992.554ZM1065.85 211L1064.71 212.639L1065.22 213H1065.85V211ZM1075.85 211V140.6H1071.85V211H1075.85ZM1073.85 138.6H1059.55V142.6H1073.85V138.6ZM1057.55 140.6V188.8H1061.55V140.6H1057.55ZM1060.72 187.176L993.621 138.976L991.287 142.224L1058.39 190.424L1060.72 187.176ZM992.454 138.6H978.354V142.6H992.454V138.6ZM976.354 140.6V211H980.354V140.6H976.354ZM978.354 213H992.554V209H978.354V213ZM994.554 211V159.7H990.554V211H994.554ZM991.408 161.339L1064.71 212.639L1067 209.361L993.701 158.061L991.408 161.339ZM1065.85 213H1073.85V209H1065.85V213Z" fill="#FD3FFC"/>
</svg>
