<svg width="1173" height="71" viewBox="0 0 1173 71" fill="none" xmlns="http://www.w3.org/2000/svg">
<path d="M0.2 0.599995V-1.40001H-1.8V0.599995H0.2ZM0.2 71H-1.8V73H0.2V71ZM16.5 58.2H14.5V60.2H16.5V58.2ZM16.5 13.3V11.3H14.5V13.3H16.5ZM66.3 73C76.6345 73 83.8721 71.271 88.5211 67.4441C93.2784 63.528 94.9 57.7868 94.9 50.9H90.9C90.9 57.2132 89.4216 61.522 85.9789 64.3559C82.4279 67.279 76.3656 69 66.3 69V73ZM94.9 50.9V21.4H90.9V50.9H94.9ZM94.9 21.4C94.9 14.1922 93.2934 8.27347 88.5404 4.25949C83.8844 0.327457 76.6311 -1.40001 66.3 -1.40001V2.59999C76.3689 2.59999 82.4156 4.32253 85.9596 7.3155C89.4066 10.2265 90.9 14.7078 90.9 21.4H94.9ZM66.3 -1.40001H0.2V2.59999H66.3V-1.40001ZM-1.8 0.599995V71H2.2V0.599995H-1.8ZM0.2 73H66.3V69H0.2V73ZM74.5 50.7C74.5 53.7701 73.9529 54.7055 73.2826 55.1797C72.8649 55.4751 72.1816 55.7518 70.999 55.9385C69.8203 56.1247 68.2951 56.2 66.3 56.2V60.2C68.3549 60.2 70.1297 60.1253 71.6229 59.8896C73.1121 59.6544 74.4726 59.2374 75.5924 58.4453C77.9971 56.7445 78.5 53.9299 78.5 50.7H74.5ZM66.3 56.2H16.5V60.2H66.3V56.2ZM18.5 58.2V13.3H14.5V58.2H18.5ZM16.5 15.3H66.3V11.3H16.5V15.3ZM66.3 15.3C68.2972 15.3 69.8152 15.3757 70.9855 15.5687C72.1556 15.7616 72.8221 16.0485 73.2313 16.3578C73.9335 16.8888 74.5 17.9809 74.5 21.4H78.5C78.5 17.9191 78.0165 14.9612 75.6437 13.1672C74.5154 12.314 73.1382 11.8696 71.6364 11.622C70.1348 11.3743 68.3528 11.3 66.3 11.3V15.3ZM74.5 21.4V50.7H78.5V21.4H74.5ZM174.492 73C182.926 73 189.115 71.2329 193.219 67.8266C197.393 64.3632 199.092 59.4764 199.092 54H195.092C195.092 58.6236 193.692 62.2368 190.665 64.7484C187.57 67.3171 182.459 69 174.492 69V73ZM199.092 54V17.6H195.092V54H199.092ZM199.092 17.6C199.092 12.1236 197.393 7.23681 193.219 3.77343C189.115 0.367119 182.926 -1.40001 174.492 -1.40001V2.59999C182.459 2.59999 187.57 4.28287 190.665 6.85156C193.692 9.36318 195.092 12.9764 195.092 17.6H199.092ZM174.492 -1.40001H126.792V2.59999H174.492V-1.40001ZM126.792 -1.40001C118.359 -1.40001 112.17 0.367119 108.065 3.77343C103.892 7.23681 102.192 12.1236 102.192 17.6H106.192C106.192 12.9764 107.593 9.36318 110.619 6.85156C113.715 4.28287 118.826 2.59999 126.792 2.59999V-1.40001ZM102.192 17.6V54H106.192V17.6H102.192ZM102.192 54C102.192 59.4764 103.892 64.3632 108.065 67.8266C112.17 71.2329 118.359 73 126.792 73V69C118.826 69 113.715 67.3171 110.619 64.7484C107.593 62.2368 106.192 58.6236 106.192 54H102.192ZM126.792 73H174.492V69H126.792V73ZM178.792 54.1C178.792 54.9456 178.529 55.2864 178.121 55.5404C177.538 55.9042 176.42 56.2 174.492 56.2V60.2C176.664 60.2 178.696 59.8958 180.238 58.9346C181.956 57.8636 182.792 56.1544 182.792 54.1H178.792ZM174.492 56.2H126.792V60.2H174.492V56.2ZM126.792 56.2C124.864 56.2 123.746 55.9042 123.163 55.5404C122.756 55.2864 122.492 54.9456 122.492 54.1H118.492C118.492 56.1544 119.329 57.8636 121.046 58.9346C122.588 59.8958 124.62 60.2 126.792 60.2V56.2ZM122.492 54.1V17.4H118.492V54.1H122.492ZM122.492 17.4C122.492 16.6238 122.742 16.2648 123.177 15.9881C123.767 15.6134 124.889 15.3 126.792 15.3V11.3C124.595 11.3 122.567 11.6366 121.032 12.6119C119.343 13.6852 118.492 15.3762 118.492 17.4H122.492ZM126.792 15.3H174.492V11.3H126.792V15.3ZM174.492 15.3C176.395 15.3 177.517 15.6134 178.107 15.9881C178.543 16.2648 178.792 16.6238 178.792 17.4H182.792C182.792 15.3762 181.942 13.6852 180.252 12.6119C178.717 11.6366 176.689 11.3 174.492 11.3V15.3ZM178.792 17.4V54.1H182.792V17.4H178.792ZM304.489 71V73H306.489V71H304.489ZM304.489 0.599995H306.489V-1.40001H304.489V0.599995ZM290.189 0.599995V-1.40001H288.189V0.599995H290.189ZM290.189 48.8L289.022 50.4244L292.189 52.6992V48.8H290.189ZM223.089 0.599995L224.256 -1.02436L223.733 -1.40001H223.089V0.599995ZM208.989 0.599995V-1.40001H206.989V0.599995H208.989ZM208.989 71H206.989V73H208.989V71ZM223.189 71V73H225.189V71H223.189ZM223.189 19.7L224.336 18.0614L221.189 15.8591V19.7H223.189ZM296.489 71L295.342 72.6386L295.859 73H296.489V71ZM306.489 71V0.599995H302.489V71H306.489ZM304.489 -1.40001H290.189V2.59999H304.489V-1.40001ZM288.189 0.599995V48.8H292.189V0.599995H288.189ZM291.356 47.1756L224.256 -1.02436L221.922 2.22435L289.022 50.4244L291.356 47.1756ZM223.089 -1.40001H208.989V2.59999H223.089V-1.40001ZM206.989 0.599995V71H210.989V0.599995H206.989ZM208.989 73H223.189V69H208.989V73ZM225.189 71V19.7H221.189V71H225.189ZM222.042 21.3386L295.342 72.6386L297.636 69.3614L224.336 18.0614L222.042 21.3386ZM296.489 73H304.489V69H296.489V73ZM322.702 20.9V22.9H323.742L324.34 22.0477L322.702 20.9ZM333.002 6.2L334.639 7.34767L335.002 6.83095V6.2H333.002ZM333.002 0.599995H335.002V-1.40001H333.002V0.599995ZM316.302 0.599995V-1.40001H314.302V0.599995H316.302ZM316.302 20.9H314.302V22.9H316.302V20.9ZM324.34 22.0477L334.639 7.34767L331.364 5.05233L321.064 19.7523L324.34 22.0477ZM335.002 6.2V0.599995H331.002V6.2H335.002ZM333.002 -1.40001H316.302V2.59999H333.002V-1.40001ZM314.302 0.599995V20.9H318.302V0.599995H314.302ZM316.302 22.9H322.702V18.9H316.302V22.9ZM394.11 71V73H396.11V71H394.11ZM394.11 13.3V11.3H392.11V13.3H394.11ZM429.61 13.3V15.3H431.61V13.3H429.61ZM429.61 0.599995H431.61V-1.40001H429.61V0.599995ZM341.41 0.599995V-1.40001H339.41V0.599995H341.41ZM341.41 13.3H339.41V15.3H341.41V13.3ZM377.71 13.3H379.71V11.3H377.71V13.3ZM377.71 71H375.71V73H377.71V71ZM396.11 71V13.3H392.11V71H396.11ZM394.11 15.3H429.61V11.3H394.11V15.3ZM431.61 13.3V0.599995H427.61V13.3H431.61ZM429.61 -1.40001H341.41V2.59999H429.61V-1.40001ZM339.41 0.599995V13.3H343.41V0.599995H339.41ZM341.41 15.3H377.71V11.3H341.41V15.3ZM375.71 13.3V71H379.71V13.3H375.71ZM377.71 73H394.11V69H377.71V73ZM597.598 71V73H599.598V71H597.598ZM597.598 0.599995H599.598V-1.40001H597.598V0.599995ZM583.698 0.599995V-1.40001H582.688L582.088 -0.587208L583.698 0.599995ZM543.498 55.1L541.892 56.2929L543.504 58.4612L545.107 56.2872L543.498 55.1ZM502.998 0.599995L504.603 -0.592926L504.003 -1.40001H502.998V0.599995ZM487.798 0.599995V-1.40001H485.798V0.599995H487.798ZM487.798 71H485.798V73H487.798V71ZM502.898 71V73H504.898V71H502.898ZM502.898 26.7L504.498 25.5006L500.898 20.6964V26.7H502.898ZM536.098 71L534.497 72.1994L535.097 73H536.098V71ZM549.498 71V73H550.503L551.103 72.193L549.498 71ZM582.498 26.6H584.498V20.5563L580.892 25.4069L582.498 26.6ZM582.498 71H580.498V73H582.498V71ZM599.598 71V0.599995H595.598V71H599.598ZM597.598 -1.40001H583.698V2.59999H597.598V-1.40001ZM582.088 -0.587208L541.888 53.9128L545.107 56.2872L585.307 1.7872L582.088 -0.587208ZM545.103 53.9071L504.603 -0.592926L501.392 1.79292L541.892 56.2929L545.103 53.9071ZM502.998 -1.40001H487.798V2.59999H502.998V-1.40001ZM485.798 0.599995V71H489.798V0.599995H485.798ZM487.798 73H502.898V69H487.798V73ZM504.898 71V26.7H500.898V71H504.898ZM501.297 27.8994L534.497 72.1994L537.698 69.8006L504.498 25.5006L501.297 27.8994ZM536.098 73H549.498V69H536.098V73ZM551.103 72.193L584.103 27.793L580.892 25.4069L547.892 69.807L551.103 72.193ZM580.498 26.6V71H584.498V26.6H580.498ZM582.498 73H597.598V69H582.498V73ZM626.766 71V73H628.766V71H626.766ZM626.766 0.599995H628.766V-1.40001H626.766V0.599995ZM610.466 0.599995V-1.40001H608.466V0.599995H610.466ZM610.466 71H608.466V73H610.466V71ZM628.766 71V0.599995H624.766V71H628.766ZM626.766 -1.40001H610.466V2.59999H626.766V-1.40001ZM608.466 0.599995V71H612.466V0.599995H608.466ZM610.466 73H626.766V69H610.466V73ZM721.953 13.3V15.3H723.953V13.3H721.953ZM721.953 0.599995H723.953V-1.40001H721.953V0.599995ZM640.553 58.2V56.2H638.553V58.2H640.553ZM640.553 71H638.553V73H640.553V71ZM703.153 73C711.64 73 717.879 71.2063 722.019 67.7627C726.227 64.2636 727.953 59.3294 727.953 53.8H723.953C723.953 58.4706 722.529 62.1364 719.462 64.6873C716.328 67.2937 711.166 69 703.153 69V73ZM727.953 53.8V44H723.953V53.8H727.953ZM727.953 44C727.953 38.4694 726.226 33.5566 722.013 30.0821C717.871 26.6662 711.634 24.9 703.153 24.9V28.9C711.172 28.9 716.335 30.5838 719.468 33.1679C722.53 35.6934 723.953 39.3306 723.953 44H727.953ZM703.153 24.9H661.053V28.9H703.153V24.9ZM661.053 24.9C658.852 24.9 657.728 24.5712 657.188 24.2109C656.837 23.9775 656.553 23.6243 656.553 22.6H652.553C652.553 24.5757 653.219 26.3725 654.969 27.5391C656.528 28.5788 658.654 28.9 661.053 28.9V24.9ZM656.553 22.6V17.6H652.553V22.6H656.553ZM656.553 17.6C656.553 16.5373 656.866 16.1848 657.245 15.9493C657.836 15.5826 658.983 15.3 661.053 15.3V11.3C658.823 11.3 656.72 11.5674 655.136 12.5507C653.34 13.6652 652.553 15.4627 652.553 17.6H656.553ZM661.053 15.3H721.953V11.3H661.053V15.3ZM723.953 13.3V0.599995H719.953V13.3H723.953ZM721.953 -1.40001H661.053V2.59999H721.953V-1.40001ZM661.053 -1.40001C652.572 -1.40001 646.335 0.366146 642.193 3.78205C637.98 7.25657 636.253 12.1694 636.253 17.7H640.253C640.253 13.0306 641.676 9.39342 644.738 6.86794C647.871 4.28384 653.034 2.59999 661.053 2.59999V-1.40001ZM636.253 17.7V22.5H640.253V17.7H636.253ZM636.253 22.5C636.253 28.0306 637.98 32.9434 642.193 36.4179C646.335 39.8338 652.572 41.6 661.053 41.6V37.6C653.034 37.6 647.871 35.9162 644.738 33.3321C641.676 30.8066 640.253 27.1694 640.253 22.5H636.253ZM661.053 41.6H703.153V37.6H661.053V41.6ZM703.153 41.6C705.347 41.6 706.433 41.8902 706.95 42.2264C707.243 42.4172 707.553 42.7341 707.553 43.9H711.553C711.553 41.8659 710.913 40.0328 709.131 38.8736C707.573 37.8597 705.459 37.6 703.153 37.6V41.6ZM707.553 43.9V54H711.553V43.9H707.553ZM707.553 54C707.553 55.3397 707.226 55.5519 707.037 55.6674C706.545 55.9671 705.48 56.2 703.153 56.2V60.2C705.426 60.2 707.561 60.0329 709.119 59.0826C710.98 57.9481 711.553 56.0603 711.553 54H707.553ZM703.153 56.2H640.553V60.2H703.153V56.2ZM638.553 58.2V71H642.553V58.2H638.553ZM640.553 73H703.153V69H640.553V73ZM818.438 13.3V15.3H820.438V13.3H818.438ZM818.438 0.599995H820.438V-1.40001H818.438V0.599995ZM737.037 58.2V56.2H735.037V58.2H737.037ZM737.037 71H735.037V73H737.037V71ZM799.638 73C808.125 73 814.363 71.2063 818.504 67.7627C822.711 64.2636 824.438 59.3294 824.438 53.8H820.438C820.438 58.4706 819.014 62.1364 815.946 64.6873C812.812 67.2937 807.65 69 799.638 69V73ZM824.438 53.8V44H820.438V53.8H824.438ZM824.438 44C824.438 38.4694 822.71 33.5566 818.498 30.0821C814.356 26.6662 808.119 24.9 799.638 24.9V28.9C807.656 28.9 812.819 30.5838 815.952 33.1679C819.015 35.6934 820.438 39.3306 820.438 44H824.438ZM799.638 24.9H757.537V28.9H799.638V24.9ZM757.537 24.9C755.337 24.9 754.212 24.5712 753.672 24.2109C753.322 23.9775 753.037 23.6243 753.037 22.6H749.037C749.037 24.5757 749.703 26.3725 751.453 27.5391C753.013 28.5788 755.138 28.9 757.537 28.9V24.9ZM753.037 22.6V17.6H749.037V22.6H753.037ZM753.037 17.6C753.037 16.5373 753.35 16.1848 753.73 15.9493C754.32 15.5826 755.468 15.3 757.537 15.3V11.3C755.307 11.3 753.205 11.5674 751.62 12.5507C749.825 13.6652 749.037 15.4627 749.037 17.6H753.037ZM757.537 15.3H818.438V11.3H757.537V15.3ZM820.438 13.3V0.599995H816.438V13.3H820.438ZM818.438 -1.40001H757.537V2.59999H818.438V-1.40001ZM757.537 -1.40001C749.056 -1.40001 742.819 0.366146 738.677 3.78205C734.465 7.25657 732.737 12.1694 732.737 17.7H736.737C736.737 13.0306 738.16 9.39342 741.223 6.86794C744.356 4.28384 749.519 2.59999 757.537 2.59999V-1.40001ZM732.737 17.7V22.5H736.737V17.7H732.737ZM732.737 22.5C732.737 28.0306 734.465 32.9434 738.677 36.4179C742.819 39.8338 749.056 41.6 757.537 41.6V37.6C749.519 37.6 744.356 35.9162 741.223 33.3321C738.16 30.8066 736.737 27.1694 736.737 22.5H732.737ZM757.537 41.6H799.638V37.6H757.537V41.6ZM799.638 41.6C801.831 41.6 802.918 41.8902 803.434 42.2264C803.728 42.4172 804.037 42.7341 804.037 43.9H808.037C808.037 41.8659 807.397 40.0328 805.616 38.8736C804.057 37.8597 801.944 37.6 799.638 37.6V41.6ZM804.037 43.9V54H808.037V43.9H804.037ZM804.037 54C804.037 55.3397 803.711 55.5519 803.521 55.6674C803.03 55.9671 801.965 56.2 799.638 56.2V60.2C801.91 60.2 804.045 60.0329 805.604 59.0826C807.464 57.9481 808.037 56.0603 808.037 54H804.037ZM799.638 56.2H737.037V60.2H799.638V56.2ZM735.037 58.2V71H739.037V58.2H735.037ZM737.037 73H799.638V69H737.037V73ZM952.422 73C960.855 73 967.044 71.2329 971.149 67.8266C975.323 64.3632 977.022 59.4764 977.022 54H973.022C973.022 58.6236 971.621 62.2368 968.595 64.7484C965.499 67.3171 960.388 69 952.422 69V73ZM977.022 54V17.6H973.022V54H977.022ZM977.022 17.6C977.022 12.1236 975.323 7.23681 971.149 3.77343C967.044 0.367119 960.855 -1.40001 952.422 -1.40001V2.59999C960.388 2.59999 965.499 4.28287 968.595 6.85156C971.621 9.36318 973.022 12.9764 973.022 17.6H977.022ZM952.422 -1.40001H904.722V2.59999H952.422V-1.40001ZM904.722 -1.40001C896.288 -1.40001 890.099 0.367119 885.995 3.77343C881.821 7.23681 880.122 12.1236 880.122 17.6H884.122C884.122 12.9764 885.523 9.36318 888.549 6.85156C891.644 4.28287 896.755 2.59999 904.722 2.59999V-1.40001ZM880.122 17.6V54H884.122V17.6H880.122ZM880.122 54C880.122 59.4764 881.821 64.3632 885.995 67.8266C890.099 71.2329 896.288 73 904.722 73V69C896.755 69 891.644 67.3171 888.549 64.7484C885.523 62.2368 884.122 58.6236 884.122 54H880.122ZM904.722 73H952.422V69H904.722V73ZM956.722 54.1C956.722 54.9456 956.458 55.2864 956.051 55.5404C955.468 55.9042 954.35 56.2 952.422 56.2V60.2C954.594 60.2 956.626 59.8958 958.168 58.9346C959.885 57.8636 960.722 56.1544 960.722 54.1H956.722ZM952.422 56.2H904.722V60.2H952.422V56.2ZM904.722 56.2C902.794 56.2 901.676 55.9042 901.093 55.5404C900.685 55.2864 900.422 54.9456 900.422 54.1H896.422C896.422 56.1544 897.259 57.8636 898.976 58.9346C900.518 59.8958 902.55 60.2 904.722 60.2V56.2ZM900.422 54.1V17.4H896.422V54.1H900.422ZM900.422 17.4C900.422 16.6238 900.671 16.2648 901.107 15.9881C901.697 15.6134 902.819 15.3 904.722 15.3V11.3C902.525 11.3 900.497 11.6366 898.962 12.6119C897.272 13.6852 896.422 15.3762 896.422 17.4H900.422ZM904.722 15.3H952.422V11.3H904.722V15.3ZM952.422 15.3C954.325 15.3 955.447 15.6134 956.037 15.9881C956.472 16.2648 956.722 16.6238 956.722 17.4H960.722C960.722 15.3762 959.871 13.6852 958.182 12.6119C956.647 11.6366 954.619 11.3 952.422 11.3V15.3ZM956.722 17.4V54.1H960.722V17.4H956.722ZM1002.92 0.599995H1004.92V-1.40001H1002.92V0.599995ZM986.619 0.599995V-1.40001H984.619V0.599995H986.619ZM1076.72 0.599995H1078.72V-1.40001H1076.72V0.599995ZM1060.42 0.599995V-1.40001H1058.42V0.599995H1060.42ZM1058.42 54.1C1058.42 54.9456 1058.16 55.2864 1057.75 55.5404C1057.16 55.9042 1056.05 56.2 1054.12 56.2V60.2C1056.29 60.2 1058.32 59.8958 1059.86 58.9346C1061.58 57.8636 1062.42 56.1544 1062.42 54.1H1058.42ZM1054.12 56.2H1009.22V60.2H1054.12V56.2ZM1009.22 56.2C1007.29 56.2 1006.17 55.9042 1005.59 55.5404C1005.18 55.2864 1004.92 54.9456 1004.92 54.1H1000.92C1000.92 56.1544 1001.76 57.8636 1003.47 58.9346C1005.01 59.8958 1007.05 60.2 1009.22 60.2V56.2ZM1004.92 54.1V0.599995H1000.92V54.1H1004.92ZM1002.92 -1.40001H986.619V2.59999H1002.92V-1.40001ZM984.619 0.599995V54H988.619V0.599995H984.619ZM984.619 54C984.619 59.4764 986.318 64.3632 990.492 67.8266C994.596 71.2329 1000.79 73 1009.22 73V69C1001.25 69 996.141 67.3171 993.046 64.7484C990.019 62.2368 988.619 58.6236 988.619 54H984.619ZM1009.22 73H1054.12V69H1009.22V73ZM1054.12 73C1062.55 73 1068.74 71.2329 1072.85 67.8266C1077.02 64.3632 1078.72 59.4764 1078.72 54H1074.72C1074.72 58.6236 1073.32 62.2368 1070.29 64.7484C1067.2 67.3171 1062.09 69 1054.12 69V73ZM1078.72 54V0.599995H1074.72V54H1078.72ZM1076.72 -1.40001H1060.42V2.59999H1076.72V-1.40001ZM1058.42 0.599995V54.1H1062.42V0.599995H1058.42ZM1137.18 71V73H1139.18V71H1137.18ZM1137.18 13.3V11.3H1135.18V13.3H1137.18ZM1172.68 13.3V15.3H1174.68V13.3H1172.68ZM1172.68 0.599995H1174.68V-1.40001H1172.68V0.599995ZM1084.48 0.599995V-1.40001H1082.48V0.599995H1084.48ZM1084.48 13.3H1082.48V15.3H1084.48V13.3ZM1120.78 13.3H1122.78V11.3H1120.78V13.3ZM1120.78 71H1118.78V73H1120.78V71ZM1139.18 71V13.3H1135.18V71H1139.18ZM1137.18 15.3H1172.68V11.3H1137.18V15.3ZM1174.68 13.3V0.599995H1170.68V13.3H1174.68ZM1172.68 -1.40001H1084.48V2.59999H1172.68V-1.40001ZM1082.48 0.599995V13.3H1086.48V0.599995H1082.48ZM1084.48 15.3H1120.78V11.3H1084.48V15.3ZM1118.78 13.3V71H1122.78V13.3H1118.78ZM1120.78 73H1137.18V69H1120.78V73Z" fill="#FD3FFC"/>
</svg>
