<svg width="28" height="28" viewBox="0 0 28 28" fill="none" xmlns="http://www.w3.org/2000/svg"><circle cx="14" cy="14" r="14" fill="url(#paint0_linear_779_3076)"/><path d="M18.277 21.514c-.83.862-1.735.726-2.607.317-.922-.417-1.768-.435-2.74 0-1.22.563-1.862.4-2.59-.317C6.21 16.95 6.82 10 11.508 9.746c1.142.064 1.937.672 2.606.726.998-.217 1.954-.844 3.02-.762 1.278.109 2.243.653 2.877 1.633-2.64 1.697-2.014 5.426.406 6.47-.482 1.36-1.108 2.712-2.149 3.71l.009-.009zM14.029 9.692c-.127-2.023 1.405-3.693 3.165-3.856.245 2.34-1.98 4.083-3.165 3.856z" fill="#090013"/><defs><linearGradient id="paint0_linear_779_3076" x1="0" y1="14" x2="28.283" y2="14.07" gradientUnits="userSpaceOnUse"><stop stop-color="#4C27C1"/><stop offset="1" stop-color="#F761DF"/></linearGradient></defs></svg>