<svg width="28" height="28" viewBox="0 0 28 28" fill="none" xmlns="http://www.w3.org/2000/svg"><path d="M25.55 3.638a2.714 2.714 0 00-.82-1.914A2.798 2.798 0 0022.78.93L5.208.875c-.73 0-1.43.285-1.947.793a2.695 2.695 0 00-.81 1.915v17.854c0 1.493 1.238 2.625 2.757 2.625H20.22l-.722-2.406 6.052 5.469V3.638zm-7.738 14.399s-.484-.569-.888-1.057c1.762-.489 2.435-1.558 2.435-1.558a7.768 7.768 0 01-1.547.78 9.742 9.742 0 01-1.95.567 9.584 9.584 0 01-3.482-.013 10.359 10.359 0 01-1.976-.569 7.924 7.924 0 01-.982-.449c-.04-.026-.08-.039-.121-.066-.027-.013-.04-.026-.056-.026a4.738 4.738 0 01-.376-.225s.645 1.044 2.353 1.546a54.762 54.762 0 01-.9 1.083c-2.972-.092-4.102-1.994-4.102-1.994 0-4.215 1.937-7.636 1.937-7.636 1.936-1.413 3.764-1.374 3.764-1.374l.135.16c-2.42.673-3.523 1.716-3.523 1.716s.295-.158.793-.37c1.439-.62 2.582-.78 3.054-.832.075-.015.152-.024.229-.027a11.592 11.592 0 012.716-.026 11.32 11.32 0 014.047 1.255s-1.062-.992-3.348-1.665l.188-.211s1.842-.04 3.765 1.376c0 0 1.937 3.421 1.937 7.635 0-.015-1.13 1.887-4.102 1.98z" fill="url(#paint0_linear_779_3153)"/><path d="M11.56 11.922c-.766 0-1.371.647-1.371 1.453s.618 1.453 1.371 1.453c.767 0 1.372-.647 1.372-1.453.014-.807-.605-1.453-1.372-1.453zm4.908 0c-.766 0-1.372.647-1.372 1.453s.619 1.453 1.372 1.453c.767 0 1.372-.647 1.372-1.453s-.619-1.453-1.372-1.453z" fill="url(#paint1_linear_779_3153)"/><defs><linearGradient id="paint0_linear_779_3153" x1="2.45" y1="14" x2="25.784" y2="14.051" gradientUnits="userSpaceOnUse"><stop stop-color="#4C27C1"/><stop offset="1" stop-color="#F761DF"/></linearGradient><linearGradient id="paint1_linear_779_3153" x1="10.189" y1="13.375" x2="17.916" y2="13.425" gradientUnits="userSpaceOnUse"><stop stop-color="#4C27C1"/><stop offset="1" stop-color="#F761DF"/></linearGradient></defs></svg>