<svg width="28" height="28" viewBox="0 0 28 28" fill="none" xmlns="http://www.w3.org/2000/svg"><path d="M14 10.355A3.653 3.653 0 0010.355 14 3.653 3.653 0 0014 17.645 3.653 3.653 0 0017.645 14 3.653 3.653 0 0014 10.355zM24.932 14c0-1.509.013-3.005-.071-4.511-.085-1.75-.484-3.303-1.764-4.583-1.283-1.283-2.833-1.679-4.583-1.764-1.51-.085-3.005-.07-4.512-.07-1.509 0-3.005-.015-4.511.07-1.75.085-3.303.484-4.583 1.764-1.283 1.282-1.68 2.833-1.764 4.583-.085 1.51-.07 3.005-.07 4.511 0 1.507-.015 3.006.07 4.512.085 1.75.484 3.303 1.764 4.583 1.282 1.282 2.833 1.679 4.583 1.764 1.509.084 3.005.07 4.511.07 1.51 0 3.005.014 4.512-.07 1.75-.085 3.303-.484 4.583-1.764 1.282-1.282 1.679-2.833 1.764-4.583.087-1.506.07-3.002.07-4.512zM14 19.61A5.6 5.6 0 018.39 14 5.6 5.6 0 0114 8.392 5.6 5.6 0 0119.608 14 5.6 5.6 0 0114 19.61zm5.837-10.137c-.724 0-1.31-.585-1.31-1.31 0-.724.586-1.31 1.31-1.31a1.308 1.308 0 01.927 2.237 1.309 1.309 0 01-.927.383z" fill="url(#paint0_linear_779_3156)"/><defs><linearGradient id="paint0_linear_779_3156" x1="3.072" y1="14" x2="25.154" y2="14.055" gradientUnits="userSpaceOnUse"><stop stop-color="#4C27C1"/><stop offset="1" stop-color="#F761DF"/></linearGradient></defs></svg>