<svg xmlns="http://www.w3.org/2000/svg" width="228" height="46.243" viewBox="0 0 228 46.243"><defs><clipPath id="a"><path data-name="Rectangle 168" fill="none" d="M0 0h228v46.243H0z"/></clipPath></defs><g data-name="Group 246"><path data-name="Path 132" d="M4.688 4.754h5.018l.594.528v20.4l-.594.594H4.688zM0 0v46.221h4.688V30.968h6.933l3.433-3.3V3.3L11.687 0z" fill="#fff"/><path data-name="Path 133" d="M24.536 0v46.221h14.46v-4.755h-9.773V0z" fill="#fff"/><path data-name="Path 134" d="M80.38 0l-3.764 21.063L72.849 0h-4.82l6.207 34.665v11.556h4.688V34.665L85.196 0z" fill="#fff"/><path data-name="Path 135" d="M93.754 0v46.221h14.46v-4.755h-9.772V25.223h5.018v-4.688h-5.018V4.754h9.772V0z" fill="#fff"/><path data-name="Path 136" d="M122.383 4.754h5.015l.594.528v13.47l-.726.858h-4.886zM117.698 0v46.221h4.688V24.365h4.886l.726.858v21h4.754V23.506l-1.321-1.519 1.321-1.453V3.3l-3.37-3.3z" fill="#fff"/><path data-name="Path 137" d="M143.153 0v4.754h8.122l-8.122 37.241v4.226h13.008v-4.755h-8.122l8.122-37.241V0z" fill="#fff"/><path data-name="Path 138" d="M165.641 0v46.221h14.46v-4.755h-9.772V25.223h5.018v-4.688h-5.018V4.754h9.772V0z" fill="#fff"/><path data-name="Path 139" d="M193.164 4.754h5.019l.594.528v13.47l-.727.858h-4.886zM188.476 0v46.221h4.688V24.365h4.886l.727.858v21h4.754V23.506l-1.321-1.519 1.321-1.453V3.3L200.163 0z" fill="#fff"/><path data-name="Path 140" d="M217.699 40.938V23.506l5.612 6.471v10.961l-.594.528h-4.427zm0-24.694V5.282l.594-.528h4.424l.594.528v17.432zM216.379 0l-3.368 3.3v39.619l3.3 3.3h8.32l3.368-3.368V3.3l-3.3-3.3z" fill="#fff"/><g data-name="Group 244"><g data-name="Group 243" clip-path="url(#a)"><path data-name="Path 141" d="M49.955 0h7.629l.916 9.092c.642 6.382 1.217 12.772 1.947 19.144a125.242 125.242 0 01.829 17.567c0 .12-.026.24-.049.433h-4.672c.5-12.155-1.833-24.107-2.643-36.184l-.256-.01c-.082.688-.17 1.376-.244 2.065s-.133 1.392-.2 2.088c-.651 6.564-1.393 13.121-1.919 19.7-.29 3.63-.221 7.288-.311 10.934-.011.451 0 .9 0 1.419h-4.618c-.029-.065-.1-.144-.1-.223a119.533 119.533 0 01.4-13.666c.673-5.828 1.2-11.672 1.784-17.51.5-4.926.994-9.852 1.5-14.845" fill="#fff"/></g></g></g></svg>