<svg xmlns="http://www.w3.org/2000/svg" xmlns:xlink="http://www.w3.org/1999/xlink" width="228" height="46.243" viewBox="0 0 228 46.243">
  <defs>
    <clipPath id="clip-path">
      <rect id="Rectangle_168" data-name="Rectangle 168" width="228" height="46.243" fill="none"/>
    </clipPath>
  </defs>
  <g id="Group_246" data-name="Group 246" transform="translate(0 0)">
    <path id="Path_132" data-name="Path 132" d="M4.688,4.754H9.706l.594.528v20.4l-.594.594H4.688ZM0,0V46.221H4.688V30.968h6.933l3.433-3.3V3.3L11.687,0Z" transform="translate(0 0)" fill="#fff"/>
    <path id="Path_133" data-name="Path 133" d="M132.959,0V46.221h14.46V41.466h-9.773V0Z" transform="translate(-108.423)" fill="#fff"/>
    <path id="Path_134" data-name="Path 134" d="M381,0l-3.764,21.063L373.469,0h-4.82l6.207,34.665V46.221h4.688V34.665L385.816,0Z" transform="translate(-300.62)" fill="#fff"/>
    <path id="Path_135" data-name="Path 135" d="M508.057,0V46.221h14.46V41.466h-9.772V25.223h5.018V20.535h-5.018V4.754h9.772V0Z" transform="translate(-414.303)" fill="#fff"/>
    <path id="Path_136" data-name="Path 136" d="M642.485,4.754H647.5l.594.528v13.47l-.726.858h-4.886ZM637.8,0V46.221h4.688V24.365h4.886l.726.858v21h4.754V23.506l-1.321-1.519,1.321-1.453V3.3L649.484,0Z" transform="translate(-520.102 0)" fill="#fff"/>
    <path id="Path_137" data-name="Path 137" d="M775.755,0V4.754h8.122l-8.122,37.241v4.226h13.008V41.466h-8.122l8.122-37.241V0Z" transform="translate(-632.602)" fill="#fff"/>
    <path id="Path_138" data-name="Path 138" d="M897.622,0V46.221h14.46V41.466H902.31V25.223h5.018V20.535H902.31V4.754h9.772V0Z" transform="translate(-731.981)" fill="#fff"/>
    <path id="Path_139" data-name="Path 139" d="M1026.05,4.754h5.019l.594.528v13.47l-.727.858h-4.886ZM1021.362,0V46.221h4.688V24.365h4.886l.727.858v21h4.754V23.506l-1.321-1.519,1.321-1.453V3.3L1033.049,0Z" transform="translate(-832.886 0)" fill="#fff"/>
    <path id="Path_140" data-name="Path 140" d="M1159.009,40.938V23.506l5.612,6.471V40.938l-.594.528H1159.6Zm0-24.694V5.282l.594-.528h4.424l.594.528V22.714ZM1157.689,0l-3.368,3.3V42.919l3.3,3.3h8.32l3.368-3.368V3.3l-3.3-3.3Z" transform="translate(-941.31 0)" fill="#fff"/>
    <g id="Group_244" data-name="Group 244" transform="translate(0 0)">
      <g id="Group_243" data-name="Group 243" clip-path="url(#clip-path)">
        <path id="Path_141" data-name="Path 141" d="M254.391,0h7.629l.916,9.092c.642,6.382,1.217,12.772,1.947,19.144a125.242,125.242,0,0,1,.829,17.567c0,.12-.026.24-.049.433h-4.672c.5-12.155-1.833-24.107-2.643-36.184l-.256-.01c-.082.688-.17,1.376-.244,2.065s-.133,1.392-.2,2.088c-.651,6.564-1.393,13.121-1.919,19.7-.29,3.63-.221,7.288-.311,10.934-.011.451,0,.9,0,1.419H250.8c-.029-.065-.1-.144-.1-.223a119.533,119.533,0,0,1,.4-13.666c.673-5.828,1.2-11.672,1.784-17.51.5-4.926.994-9.852,1.5-14.845" transform="translate(-204.436)" fill="#fff"/>
      </g>
    </g>
  </g>
</svg>
