<svg width="28" height="28" viewBox="0 0 28 28" fill="none" xmlns="http://www.w3.org/2000/svg"><g clip-path="url(#clip0_779_3074)"><path d="M13.994 0C6.278 0 0 6.279 0 13.995 0 21.72 6.278 28 13.994 28 21.718 28 28 21.718 28 13.995 28 6.28 21.718 0 13.994 0zM6.893 19.138a16.972 16.972 0 014.944-.744c2.816 0 5.596.714 8.04 2.065.146.079.278.34.339.667.058.327.035.662-.06.835a.713.713 0 01-.974.28 15.291 15.291 0 00-11.859-1.206.713.713 0 01-.9-.469c-.124-.408.134-1.318.47-1.428zm-.61-5.157a21.18 21.18 0 015.553-.74c3.376 0 6.728.816 9.695 2.363a.85.85 0 01.47.848.871.871 0 01-.1.33c-.264.518-.574.867-.77.867a.897.897 0 01-.407-.1 19.05 19.05 0 00-8.887-2.163 19.06 19.06 0 00-5.094.683.873.873 0 01-1.073-.613c-.13-.492.17-1.353.612-1.475zm-.158-3.367a1.027 1.027 0 01-1.252-.748c-.143-.58.22-1.255.747-1.388a26.092 26.092 0 016.216-.757c4.025 0 7.882.905 11.461 2.691a1.036 1.036 0 01.467 1.389c-.167.336-.529.697-.928.697-.156 0-.31-.035-.452-.101a23.364 23.364 0 00-10.548-2.48c-1.908 0-3.83.234-5.711.697z" fill="url(#paint0_linear_779_3074)"/></g><defs><linearGradient id="paint0_linear_779_3074" x1="0" y1="14" x2="28.283" y2="14.07" gradientUnits="userSpaceOnUse"><stop stop-color="#4C27C1"/><stop offset="1" stop-color="#F761DF"/></linearGradient><clipPath id="clip0_779_3074"><path fill="#fff" d="M0 0h28v28H0z"/></clipPath></defs></svg>