<svg width="25" height="20" viewBox="0 0 25 20" fill="none" xmlns="http://www.w3.org/2000/svg"><path d="M24.539 2.397c-.9.398-1.866.668-2.881.79A5.03 5.03 0 0023.863.41c-.984.585-2.062.996-3.185 1.217a5.018 5.018 0 00-8.549 4.577A14.247 14.247 0 011.79.96a5.014 5.014 0 00-.679 2.523A5.018 5.018 0 003.341 7.66a5.005 5.005 0 01-2.272-.628v.065a5.018 5.018 0 004.025 4.92c-.74.2-1.514.229-2.266.085a5.02 5.02 0 004.687 3.483 10.067 10.067 0 01-6.232 2.148c-.4 0-.8-.023-1.197-.07a14.189 14.189 0 007.69 2.255c9.228 0 14.274-7.644 14.274-14.274 0-.215-.006-.433-.015-.648A10.199 10.199 0 0024.536 2.4l.003-.003z" fill="url(#paint0_linear_779_3152)"/><defs><linearGradient id="paint0_linear_779_3152" x1=".086" y1="9.978" x2="24.785" y2="10.053" gradientUnits="userSpaceOnUse"><stop stop-color="#4C27C1"/><stop offset="1" stop-color="#F761DF"/></linearGradient></defs></svg>